# xmcd
#
# Track frame offsets:
#	150
#	18702
#	33850
#	49920
#	63126
#	76348
#	89258
#	99538
#	111520
#	124830
#	135350
#	146404
#	159794
#	173798
#	184738
#	196190
#	205932
#	216608
#
# Disc length: 3037 seconds
# Revision: 0
# Processed by: cddbd v1.5.2PL0 Copyright (c) Steve Scherf et al.
# Submitted via: dBpowerAMP V12.0
#
DISCID=f80bdb12
DTITLE=Albert Collins - The Complete Imperial Recordings [Capitol] (t)
DYEAR=1991
DGENRE=Blues
TTITLE0=Baby What You Want Me To Do-Rock Me Baby
TTITLE1=Lip Service
TTITLE2=Things That I Used To Do (Talking Slim Blues)
TTITLE3=Back-Yard Back-Talk
TTITLE4=Tounge Lashing
TTITLE5=And Then It Started Raining
TTITLE6=Soul Food
TTITLE7=Jam It Up
TTITLE8=Do What You Want To Do
TTITLE9=Black Bottom Bayou
TTITLE10=Junkey Monkey
TTITLE11=69 Underpass Roadside In
TTITLE12=I Need You So
TTITLE13=Bitsey
TTITLE14=Cool 'N Collarards
TTITLE15=Blend Down And Jam
TTITLE16=Sweet N' Sour
TTITLE17=Swamp Sauce
EXTD=
EXTT0=
EXTT1=
EXTT2=
EXTT3=
EXTT4=
EXTT5=
EXTT6=
EXTT7=
EXTT8=
EXTT9=
EXTT10=
EXTT11=
EXTT12=
EXTT13=
EXTT14=
EXTT15=
EXTT16=
EXTT17=
PLAYORDER=
